<svg xmlns="http://www.w3.org/2000/svg" xmlns:xlink="http://www.w3.org/1999/xlink" viewBox="0 0 100 100">
    <defs>
        <clipPath id="clip-path">
            <circle cx="50.15" cy="50" r="46.57" style="fill:none"/>
        </clipPath>
    </defs>
    <title>
        icons
    </title>
    <g id="bateria_nadbrzezna" data-name="bateria nadbrzezna">
        <circle cx="49.93" cy="50.07" r="46.57" style="stroke-miterlimit:10;stroke:#d81d40;stroke-width:5px;fill:none"/>
        <circle cx="50.12" cy="50.29" r="44.28" style="stroke:#e57f9a;stroke-miterlimit:10;fill:none"/>
        <g style="clip-path:url(#clip-path)">
            <path d="M23,86.32,25.05,82c7.42-4,15.56-7.77,23-11.71-7.37-6.15-14.61-12.39-22-18.53,2.83-.1,5.27-.34,8-3,1.19-1.16,2.68-4.42,1.92-8.25L60.69,68.84c2.09,0,5.08.34,7.17.34C61.48,63.38,55,57.06,48.62,51.26c2.66.08,5.15-.2,7.28-2.33a8.63,8.63,0,0,0,2-7.57c8.29,9.57,14.87,18.49,23.16,28.06,2.67,0,8.29-.21,11-.15A33.7,33.7,0,0,1,84,87c-7.23,8-16.42,9.5-27.66,11.31-10.06,1.62-25.63,4.13-31.32-4A13.15,13.15,0,0,1,23,86.32Z"/>
            <path d="M27.54,37.69a5.31,5.31,0,1,1-5.3,5.3,5.31,5.31,0,0,1,5.3-5.3m0-2.35A7.66,7.66,0,1,0,35.2,43a7.66,7.66,0,0,0-7.66-7.65Z"/>
            <path d="M49.57,37.48a5.31,5.31,0,1,1-5.3,5.3,5.31,5.31,0,0,1,5.3-5.3m0-2.35a7.66,7.66,0,1,0,7.66,7.65,7.66,7.66,0,0,0-7.66-7.65Z"/>
        </g>
    </g>
</svg>
