<svg xmlns="http://www.w3.org/2000/svg" xmlns:xlink="http://www.w3.org/1999/xlink" viewBox="0 0 100 100">
    <defs>
        <clipPath id="clip-path">
            <circle cx="50.15" cy="50" r="46.57" style="fill:none"/>
        </clipPath>
    </defs>
    <title>
        icons
    </title>
    <g id="krazownik">
        <circle cx="49.93" cy="50.07" r="46.57" style="stroke-miterlimit:10;stroke:#392f80;stroke-width:5px;fill:none"/>
        <circle cx="50.12" cy="50.29" r="44.28" style="stroke:#e57f9a;stroke-miterlimit:10;fill:none"/>
        <g style="clip-path:url(#clip-path)">
            <path d="M99.05,53.31c-8.28,4-16.78,7.55-25.07,11.51-.37-.35-.86-.83-1.24-1.18,8.48-4.56,17.29-9.23,25.77-13.8.12-2.33.24-3.15.36-5.49L75.63,54.63V42.13H71.2s0-4.41,0-6.64c0,0-5.41,0-8.12,0,0-2.2,0-4.34,0-6.53a20.78,20.78,0,0,0-4.19-2.28,18.9,18.9,0,0,0-15.54,0A24.91,24.91,0,0,0,39.16,29c0,2.19.07,4.33.11,6.53-2.71,0-5.52,0-8.24,0,0,2.23,0,4.4,0,6.63H26.59V54.71L3,44.28c.12,2.33.24,3.16.36,5.49,8.48,4.56,17.52,9.15,26,13.72L28,64.74C19.74,60.79,11.1,57.2,2.81,53.24c.12,1.31.24,3.47.36,4.78L23.25,69.27c-2.7,2.51-12,11.25-12,11.25l2.39,4.54L32.3,95.83c6,.56,11.16,1.12,17.14,1.68.07-17.9.05-35.53,0-53l3.52,0c0,17.91,0,53,0,53,6-.56,10.58-1.12,16.56-1.68L88.22,85.14l2.4-4.55s-9.14-8.71-11.83-11.22L98.69,58.1C98.81,56.78,98.93,54.63,99.05,53.31ZM62.48,37.41h3.83v4.34H62.48Zm-5.26,0H61v4.34H57.22Zm-15.8,0h3.83v4.34H41.42Zm-5.26,0H40v4.34H36.16ZM29,55.77q3.83-3.9,7.66-7.78h9.08L34.79,58.34Zm21.55-14H46.69V37.41h3.83ZM52,37.41h3.83v4.34H52Zm15.23,21C63.63,55,60,51.5,56.26,48H65.6l7.59,7.72Z"/>
        </g>
    </g>
</svg>
