<svg xmlns="http://www.w3.org/2000/svg" xmlns:xlink="http://www.w3.org/1999/xlink" viewBox="0 0 100 100">
    <defs>
        <clipPath id="clip-path">
            <circle cx="50.15" cy="50" r="46.57" style="fill:none"/>
        </clipPath>
    </defs>
    <title>
        icons
    </title>
    <g id="mina">
        <circle cx="49.93" cy="50.07" r="46.57" style="stroke-miterlimit:10;stroke:#d81d40;stroke-width:5px;fill:none"/>
        <circle cx="50.12" cy="50.29" r="44.28" style="stroke:#e57f9a;stroke-miterlimit:10;fill:none"/>
        <g style="clip-path:url(#clip-path)">
            <path d="M81.23,56.41l.63-3.83-11-1.8a21.68,21.68,0,0,0-1.31-6.57l6-2.69L73.85,38l-6,2.73A21.33,21.33,0,0,0,65.11,37l9-9-2.75-2.75-9.09,9.09a21.08,21.08,0,0,0-4-2.4l1.14-2.55-3.55-1.59-1.26,2.83c-.55-.14-1.1-.26-1.66-.35l1.35-13.23-3.87-.39L49,30a22.25,22.25,0,0,0-2.46.16L45.4,24.63l-3.8.79L42.76,31c-.64.2-1.27.43-1.89.68L35.8,22.88l-3.37,1.95,5,8.65a21,21,0,0,0-3.64,2.93L31,34.27l-2.37,3.08,2.66,2a21.63,21.63,0,0,0-2.74,5.48l-9-2.61L18.44,46l9.24,2.66a21.84,21.84,0,0,0,.18,7.13l-5.64,1.81,1.19,3.7,5.52-1.77a22.62,22.62,0,0,0,2.14,4.15l-7.39,5.8,2.4,3.06,7.43-5.83A22.1,22.1,0,0,0,37.42,70l-2.15,4.8,3.55,1.58,2-4.57a24.31,24.31,0,0,0,2.36.81L41.5,83.22l3.83.63,1.73-10.56a20.59,20.59,0,0,0,2.09.11,23.83,23.83,0,0,0,2.69-.17l1.26,5.24,3.78-.91-1.24-5.15a21.68,21.68,0,0,0,2.78-1.09l5.37,9.31,3.37-1.95-5.39-9.34a21.74,21.74,0,0,0,5.81-6.2l3.69,2.43,2.14-3.25-4.08-2.68a21.6,21.6,0,0,0,1.3-5Z" style="fill:#19151c"/>
        </g>
</svg>
