<svg xmlns="http://www.w3.org/2000/svg" xmlns:xlink="http://www.w3.org/1999/xlink" viewBox="0 0 100 100">
    <defs>
        <clipPath id="clip-path">
            <circle cx="50.15" cy="50" r="46.57" style="fill:none"/>
        </clipPath>
    </defs>
    <title>
        icons
    </title>
    <g id="okret_podwodny" data-name="okret podwodny">
        <circle cx="49.93" cy="50.07" r="46.57" style="stroke-miterlimit:10;stroke:#392f80;stroke-width:5px;fill:none"/>
        <circle cx="50.12" cy="50.29" r="44.28" style="stroke:#e57f9a;stroke-miterlimit:10;fill:none"/>
        <g style="clip-path:url(#clip-path)">
            <path d="M87.92,53.46,62,56c-.3-2.26-.37-3.29-.66-5.38l2.88-.28-.57-4.51-2.88.29c0,.12-1.46-11.37-1.46-11.37l-3,.25L54.72,22.81l-3.23.3c.39,4,1.58,12.21,1.58,12.21l-2.56.33L47.83,14.92,44,15.25,46.63,36,35.46,37a6.29,6.29,0,0,0,.45,4.61,7,7,0,0,0,2.88,3.09c0,1.51.1,1.95.09,3.46a2.78,2.78,0,0,0-1.79,2.49,2.2,2.2,0,0,0,2,2c.12.75.11,2.28.23,3,0,0-16.91,2.27-25.54,3.18l.31,6.82c-4.77.49-15.56,1.28-15.55,1.49A41.52,41.52,0,0,0,5.86,80.81,35.11,35.11,0,0,0,18,90.27c1.1-.17.13-1.77,1.23-1.94,0,0,33.34-1.91,49-3.59C71.78,82.59,90.17,73.82,87.92,53.46Zm-65.34,9.6-4.95.63-.25-2.46,5-.66Zm7.5-1-4.95.62-.26-2.45,5-.66Zm7.63-1-5,.63-.26-2.46,5-.66Z"/>
        </g>
    </g>
</svg>
